<svg width="243" height="54" viewBox="0 0 243 54" fill="none" xmlns="http://www.w3.org/2000/svg">
<g clip-path="url(#clip0)">
<path d="M40.2781 37.7882C40.2781 46.6734 33.0435 52.062 24.1438 51.9995C23.732 51.9962 23.3246 51.9817 22.9206 51.956H22.9195C14.637 51.4157 8.12223 45.9993 8.24167 37.5571C8.30417 33.1843 10.1189 29.2377 13.0141 26.3839C14.2641 25.1528 15.0622 23.5456 15.301 21.8067C15.3089 21.7554 15.3156 21.7097 15.3234 21.6694C16.1739 17.2285 19.8514 13.888 24.2589 13.888H24.3057C28.692 13.9114 32.3472 17.2442 33.1943 21.6694C33.1988 21.6896 33.2021 21.7108 33.2054 21.7342C33.4934 23.53 34.3182 25.1941 35.6028 26.482C38.4912 29.3783 40.2781 33.3741 40.2781 37.7882Z" fill="#A3E261"/>
<path d="M24.3056 13.888L24.194 17.2865C24.194 17.2865 22.6677 18.4423 22.4975 21.3067C22.051 28.8218 16.1916 31.5004 16.1916 39.0898C16.1916 46.6793 18.926 49.6557 22.9217 51.9548L22.9206 51.9559H22.9195C14.6369 51.4156 8.12223 45.9992 8.24167 37.557C8.30417 33.1842 10.1189 29.2376 13.0141 26.3838C14.2641 25.1527 15.0622 23.5455 15.301 21.8066C15.3089 21.7553 15.3156 21.7096 15.3234 21.6693C16.1739 17.2284 19.8514 13.8879 24.2589 13.8879L24.3056 13.888Z" fill="#93CC52"/>
<path d="M24.0847 17.0682C24.0364 17.0682 23.9875 17.064 23.9384 17.0554C23.4832 16.9752 23.1793 16.5413 23.2594 16.0861C23.2727 16.0101 24.554 8.4525 21.4026 5.30104C21.0756 4.97408 21.0756 4.4441 21.4026 4.11735C21.7295 3.79039 22.2595 3.79039 22.5863 4.11735C26.3543 7.88541 24.969 16.0316 24.9082 16.3764C24.8364 16.7825 24.4832 17.0682 24.0847 17.0682Z" fill="#B25719"/>
<path d="M22.3141 15.7811C22.8071 15.7761 23.1333 15.77 23.4275 15.7505C23.7165 15.7339 23.9539 15.7231 24.1936 15.7228C24.4331 15.7212 24.6701 15.7321 24.9586 15.7484C25.2525 15.7678 25.5785 15.7749 26.073 15.7813C26.0744 16.2791 25.8119 16.6811 25.4626 16.9664C25.1085 17.2492 24.65 17.398 24.1936 17.3967C23.7372 17.396 23.2791 17.2473 22.9255 16.9641C22.5766 16.6786 22.3142 16.2774 22.3141 15.7811Z" fill="#93CC52"/>
<path d="M26.9952 8.75325C24.061 8.75325 22.7069 6.76995 22.6397 6.66839C22.4525 6.38567 22.5299 6.00491 22.8125 5.8176C23.0942 5.63108 23.4734 5.70735 23.6613 5.98762C23.729 6.08665 25.2436 8.22864 28.7022 7.27893C29.0291 7.18889 29.3669 7.38137 29.4566 7.70843C29.5464 8.03538 29.3542 8.37317 29.0272 8.46292C28.2802 8.6679 27.6036 8.75325 26.9952 8.75325Z" fill="#B25719"/>
<path d="M37.5884 9.50573L41.7601 5.09958L36.2405 2.57897C32.8522 1.03151 28.8642 2.70231 27.5905 6.2028L27.4755 6.51911C27.148 7.4196 27.344 8.42741 27.9854 9.13942L28.2107 9.38952C30.7037 12.1571 35.0274 12.2107 37.5884 9.50573Z" fill="#2FCC6E"/>
</g>
<path d="M82.0312 22.7656C82.0312 25.6562 81.0417 27.8828 79.0625 29.4453C77.0964 30.9948 74.2773 31.7695 70.6055 31.7695H67.2461V43H63.9258V14.4453H71.3281C78.4635 14.4453 82.0312 17.2188 82.0312 22.7656ZM67.2461 28.918H70.2344C73.1771 28.918 75.306 28.4427 76.6211 27.4922C77.9362 26.5417 78.5938 25.0182 78.5938 22.9219C78.5938 21.0339 77.9753 19.6276 76.7383 18.7031C75.5013 17.7786 73.5742 17.3164 70.957 17.3164H67.2461V28.918ZM96.582 43.3906C93.418 43.3906 90.918 42.4271 89.082 40.5C87.2591 38.5729 86.3477 35.8971 86.3477 32.4727C86.3477 29.0221 87.194 26.2812 88.8867 24.25C90.5924 22.2188 92.8776 21.2031 95.7422 21.2031C98.4245 21.2031 100.547 22.0885 102.109 23.8594C103.672 25.6172 104.453 27.9414 104.453 30.832V32.8828H89.707C89.7721 35.3958 90.4036 37.3034 91.6016 38.6055C92.8125 39.9076 94.5117 40.5586 96.6992 40.5586C99.0039 40.5586 101.283 40.0768 103.535 39.1133V42.0039C102.389 42.4987 101.302 42.8503 100.273 43.0586C99.2578 43.2799 98.0273 43.3906 96.582 43.3906ZM95.7031 23.918C93.9844 23.918 92.6107 24.4779 91.582 25.5977C90.5664 26.7174 89.9674 28.2669 89.7852 30.2461H100.977C100.977 28.2018 100.521 26.6393 99.6094 25.5586C98.6979 24.4648 97.3958 23.918 95.7031 23.918ZM119.043 43.3906C115.879 43.3906 113.379 42.4271 111.543 40.5C109.72 38.5729 108.809 35.8971 108.809 32.4727C108.809 29.0221 109.655 26.2812 111.348 24.25C113.053 22.2188 115.339 21.2031 118.203 21.2031C120.885 21.2031 123.008 22.0885 124.57 23.8594C126.133 25.6172 126.914 27.9414 126.914 30.832V32.8828H112.168C112.233 35.3958 112.865 37.3034 114.062 38.6055C115.273 39.9076 116.973 40.5586 119.16 40.5586C121.465 40.5586 123.743 40.0768 125.996 39.1133V42.0039C124.85 42.4987 123.763 42.8503 122.734 43.0586C121.719 43.2799 120.488 43.3906 119.043 43.3906ZM118.164 23.918C116.445 23.918 115.072 24.4779 114.043 25.5977C113.027 26.7174 112.428 28.2669 112.246 30.2461H123.438C123.438 28.2018 122.982 26.6393 122.07 25.5586C121.159 24.4648 119.857 23.918 118.164 23.918ZM142.227 21.2031C143.177 21.2031 144.03 21.2812 144.785 21.4375L144.336 24.4453C143.451 24.25 142.669 24.1523 141.992 24.1523C140.26 24.1523 138.776 24.8555 137.539 26.2617C136.315 27.668 135.703 29.4193 135.703 31.5156V43H132.461V21.5938H135.137L135.508 25.5586H135.664C136.458 24.1654 137.415 23.0911 138.535 22.3359C139.655 21.5807 140.885 21.2031 142.227 21.2031ZM162.598 37.1602C162.598 39.1523 161.855 40.6888 160.371 41.7695C158.887 42.8503 156.803 43.3906 154.121 43.3906C151.283 43.3906 149.069 42.9414 147.48 42.043V39.0352C148.509 39.556 149.609 39.9661 150.781 40.2656C151.966 40.5651 153.105 40.7148 154.199 40.7148C155.892 40.7148 157.194 40.4479 158.105 39.9141C159.017 39.3672 159.473 38.5404 159.473 37.4336C159.473 36.6003 159.108 35.8906 158.379 35.3047C157.663 34.7057 156.257 34.0026 154.16 33.1953C152.168 32.4531 150.749 31.8086 149.902 31.2617C149.069 30.7018 148.444 30.0703 148.027 29.3672C147.624 28.6641 147.422 27.8242 147.422 26.8477C147.422 25.1029 148.132 23.7292 149.551 22.7266C150.97 21.7109 152.917 21.2031 155.391 21.2031C157.695 21.2031 159.948 21.6719 162.148 22.6094L160.996 25.2461C158.848 24.3607 156.901 23.918 155.156 23.918C153.62 23.918 152.461 24.1589 151.68 24.6406C150.898 25.1224 150.508 25.7865 150.508 26.6328C150.508 27.2057 150.651 27.694 150.938 28.0977C151.237 28.5013 151.712 28.8854 152.363 29.25C153.014 29.6146 154.264 30.1419 156.113 30.832C158.652 31.7565 160.365 32.6875 161.25 33.625C162.148 34.5625 162.598 35.7409 162.598 37.1602ZM185.371 43L181.445 30.4414C181.198 29.6732 180.736 27.9284 180.059 25.207H179.902C179.382 27.4857 178.926 29.2435 178.535 30.4805L174.492 43H170.742L164.902 21.5938H168.301C169.681 26.9714 170.729 31.0664 171.445 33.8789C172.174 36.6914 172.591 38.5859 172.695 39.5625H172.852C172.995 38.8203 173.223 37.8633 173.535 36.6914C173.861 35.5065 174.141 34.569 174.375 33.8789L178.301 21.5938H181.816L185.645 33.8789C186.374 36.1185 186.868 38 187.129 39.5234H187.285C187.337 39.0547 187.474 38.332 187.695 37.3555C187.93 36.3789 189.29 31.125 191.777 21.5938H195.137L189.219 43H185.371ZM212.188 43L211.543 39.9531H211.387C210.319 41.2943 209.251 42.2057 208.184 42.6875C207.129 43.1562 205.807 43.3906 204.219 43.3906C202.096 43.3906 200.43 42.8438 199.219 41.75C198.021 40.6562 197.422 39.1003 197.422 37.082C197.422 32.7591 200.879 30.4935 207.793 30.2852L211.426 30.168V28.8398C211.426 27.1602 211.061 25.9232 210.332 25.1289C209.616 24.3216 208.464 23.918 206.875 23.918C205.091 23.918 203.073 24.4648 200.82 25.5586L199.824 23.0781C200.879 22.5052 202.031 22.056 203.281 21.7305C204.544 21.4049 205.807 21.2422 207.07 21.2422C209.622 21.2422 211.51 21.8086 212.734 22.9414C213.971 24.0742 214.59 25.8906 214.59 28.3906V43H212.188ZM204.863 40.7148C206.882 40.7148 208.464 40.1615 209.609 39.0547C210.768 37.9479 211.348 36.3984 211.348 34.4062V32.4727L208.105 32.6094C205.527 32.7005 203.665 33.1042 202.52 33.8203C201.387 34.5234 200.82 35.6237 200.82 37.1211C200.82 38.293 201.172 39.1849 201.875 39.7969C202.591 40.4089 203.587 40.7148 204.863 40.7148ZM231.25 43.3906C229.857 43.3906 228.581 43.1367 227.422 42.6289C226.276 42.1081 225.312 41.3138 224.531 40.2461H224.297C224.453 41.4961 224.531 42.681 224.531 43.8008V52.6094H221.289V21.5938H223.926L224.375 24.5234H224.531C225.365 23.3516 226.335 22.5052 227.441 21.9844C228.548 21.4635 229.818 21.2031 231.25 21.2031C234.089 21.2031 236.276 22.1732 237.812 24.1133C239.362 26.0534 240.137 28.7747 240.137 32.2773C240.137 35.793 239.349 38.5273 237.773 40.4805C236.211 42.4206 234.036 43.3906 231.25 43.3906ZM230.781 23.957C228.594 23.957 227.012 24.5625 226.035 25.7734C225.059 26.9844 224.557 28.9115 224.531 31.5547V32.2773C224.531 35.2852 225.033 37.4401 226.035 38.7422C227.038 40.0312 228.646 40.6758 230.859 40.6758C232.708 40.6758 234.154 39.9271 235.195 38.4297C236.25 36.9323 236.777 34.8685 236.777 32.2383C236.777 29.569 236.25 27.5247 235.195 26.1055C234.154 24.6732 232.682 23.957 230.781 23.957Z" fill="#253315"/>
<defs>
<clipPath id="clip0">
<rect width="50" height="50" fill="white" transform="translate(0 2)"/>
</clipPath>
</defs>
</svg>
